<svg width="338" height="127" viewBox="0 0 338 127" fill="none" xmlns="http://www.w3.org/2000/svg">
<g id="slack-svg-without-logo">
<g id="logo">
<path id="traco-vermelho" d="M139.1 79.3999C139.1 72.0999 145 66.2 152.3 66.2C159.6 66.2 165.5 72.0999 165.5 79.3999V112.4C165.5 119.7 159.6 125.6 152.3 125.6C145 125.6 139.1 119.7 139.1 112.4V79.3999Z" fill="#E01E5A"/>
<path id="traco-azul" d="M152.3 33.1C159.6 33.1 165.5 39 165.5 46.3C165.5 53.6 159.6 59.5 152.3 59.5H119.2C111.9 59.5 106 53.6 106 46.3C106 39 111.9 33.1 119.2 33.1H152.3Z" fill="#36C5F0"/>
<path id="traco-verde" d="M198.6 46.3C198.6 53.6 192.7 59.5 185.4 59.5C178.1 59.5 172.2 53.6 172.2 46.3V13.2C172.2 5.9 178.1 0 185.4 0C192.7 0 198.6 5.9 198.6 13.2V46.3Z" fill="#2EB67D"/>
<path id="traco-amarelo" d="M185.4 92.5999C178.1 92.5999 172.2 86.6999 172.2 79.3999C172.2 72.0999 178.1 66.2 185.4 66.2H218.5C225.8 66.2 231.7 72.0999 231.7 79.3999C231.7 86.6999 225.8 92.5999 218.5 92.5999H185.4Z" fill="#ECB22E"/>
<path id="pingo-vermelho" d="M119.3 92.5999C126.6 92.5999 132.5 86.6999 132.5 79.3999V66.2H119.3C112 66.2 106.1 72.0999 106.1 79.3999C106.1 86.6999 112 92.5999 119.3 92.5999Z" fill="#E01E5A"/>
<path id="pingo-amarelo" d="M198.6 112.4C198.6 105.1 192.7 99.2 185.4 99.2H172.2V112.4C172.2 119.7 178.1 125.6 185.4 125.6C192.7 125.6 198.6 119.7 198.6 112.4Z" fill="#ECB22E"/>
<path id="pingo-verde" d="M218.4 33.1C211.1 33.1 205.2 39 205.2 46.3V59.5H218.4C225.7 59.5 231.6 53.6 231.6 46.3C231.6 39 225.7 33.1 218.4 33.1Z" fill="#2EB67D"/>
<path id="pingo-azul" d="M139.1 13.2C139.1 20.5 145 26.4 152.3 26.4H165.5V13.2C165.5 5.9 159.6 0 152.3 0C145 0 139.1 5.9 139.1 13.2Z" fill="#36C5F0"/>
</g>
<path id="slack" d="M0 117.6L6.2 103.2C12.9 108.2 21.8 110.8 30.6 110.8C37.1 110.8 41.2 108.3 41.2 104.5C41.1 93.9 2.3 102.2 2 75.6C1.9 62.1 13.9 51.7 30.9 51.7C41 51.7 51.1 54.2 58.3 59.9L52.5 74.6C45.9 70.4 37.7 67.4 29.9 67.4C24.6 67.4 21.1 69.9 21.1 73.1C21.2 83.5 60.3 77.8 60.7 103.2C60.7 117 49 126.7 32.2 126.7C19.9 126.7 8.6 123.8 0 117.6ZM237.9 98C234.8 103.4 229 107.1 222.3 107.1C212.4 107.1 204.4 99.1 204.4 89.2C204.4 79.3 212.4 71.3 222.3 71.3C229 71.3 234.8 75 237.9 80.4L255 70.9C248.6 59.5 236.3 51.7 222.3 51.7C201.6 51.7 184.8 68.5 184.8 89.2C184.8 109.9 201.6 126.7 222.3 126.7C236.4 126.7 248.6 119 255 107.5L237.9 98ZM69.3 20.6H90.7V125.3H69.3V20.6ZM263.4 20.6V125.3H284.8V93.9L310.2 125.3H337.6L305.3 88L335.2 53.2H309L284.8 82.1V20.6H263.4ZM154.3 98.2C151.2 103.3 144.8 107.1 137.6 107.1C127.7 107.1 119.7 99.1 119.7 89.2C119.7 79.3 127.7 71.3 137.6 71.3C144.8 71.3 151.2 75.3 154.3 80.5V98.2ZM154.3 53.2V61.7C150.8 55.8 142.1 51.7 133 51.7C114.2 51.7 99.4 68.3 99.4 89.1C99.4 109.9 114.2 126.7 133 126.7C142.1 126.7 150.8 122.6 154.3 116.7V125.2H175.7V53.2H154.3Z" fill="white"/>
</g>
</svg>
